<svg width="16" height="16" viewBox="0 0 16 16" fill="none" xmlns="http://www.w3.org/2000/svg">
<g clip-path="url(#clip0_1365_422)">
<path fill-rule="evenodd" clip-rule="evenodd" d="M8 1.33333C4.318 1.33333 1.33333 4.318 1.33333 8C1.33333 11.682 4.318 14.6667 8 14.6667C11.682 14.6667 14.6667 11.682 14.6667 8C14.6667 4.318 11.682 1.33333 8 1.33333ZM0 8C0 3.58167 3.58167 0 8 0C12.4183 0 16 3.58167 16 8C16 12.4183 12.4183 16 8 16C3.58167 16 0 12.4183 0 8Z" fill="#166534"/>
<path fill-rule="evenodd" clip-rule="evenodd" d="M6.39432 15.1573C6.32988 15.074 6.32988 14.3325 6.39432 12.9327C5.70388 12.9567 5.26754 12.9088 5.08532 12.789C4.81232 12.6093 4.53866 12.0557 4.29632 11.6653C4.05399 11.275 3.51532 11.2133 3.29799 11.126C3.08066 11.039 3.02599 10.6833 3.89699 10.952C4.76799 11.221 4.81032 11.9537 5.08532 12.1247C5.36032 12.296 6.01732 12.2213 6.31499 12.084C6.61266 11.9467 6.59066 11.436 6.64399 11.2337C6.71099 11.0447 6.47432 11.0027 6.46932 11.0013C6.17832 11.0013 4.65132 10.669 4.23166 9.19034C3.81232 7.71134 4.35266 6.74468 4.64099 6.32934C4.83299 6.05201 4.81599 5.46156 4.58999 4.55801C5.41132 4.45267 6.04499 4.71112 6.49099 5.33334C6.49166 5.33667 7.07632 4.98567 7.99999 4.98567C8.92366 4.98567 9.25166 5.27167 9.50466 5.33334C9.75766 5.39501 9.95999 4.24467 11.5223 4.55801C11.196 5.19901 10.923 6.00001 11.1313 6.32934C11.34 6.65834 12.158 7.70501 11.6557 9.19034C11.3203 10.1803 10.6615 10.784 9.67932 11.0013C9.56688 11.0373 9.51066 11.0953 9.51066 11.1753C9.51066 11.2953 9.66266 11.3083 9.88199 11.8707C10.0287 12.2453 10.0393 13.3159 9.91399 15.0823C9.59688 15.163 9.35021 15.2172 9.17399 15.245C8.86166 15.294 8.52232 15.3217 8.18899 15.332C7.85566 15.3427 7.73999 15.3417 7.27899 15.2987C6.98126 15.2715 6.68571 15.2242 6.39432 15.1573Z" fill="#166534"/>
</g>
<defs>
<clipPath id="clip0_1365_422">
<rect width="16" height="16" fill="white"/>
</clipPath>
</defs>
</svg>
