<svg width="24" height="24" viewBox="0 0 24 24" fill="none" xmlns="http://www.w3.org/2000/svg">
<g clip-path="url(#clip0_1473_47)">
<path d="M22.6902 0.00708666L22.8154 0L22.9689 0.0094487L23.0752 0.0283464L23.2205 0.069685L23.3469 0.124016L23.465 0.191338L23.5713 0.270473L23.6681 0.359055L23.7295 0.42874L23.8264 0.565748L23.8878 0.679134C23.9429 0.797244 23.9783 0.921653 23.9941 1.05236L24 1.17756C24 1.26654 23.9906 1.35315 23.9717 1.4374L23.9303 1.58268L16.2154 22.9335C16.0691 23.2518 15.8346 23.5216 15.5396 23.7106C15.2446 23.8997 14.9015 24.0001 14.5512 24C14.2357 24.0007 13.9254 23.9198 13.6504 23.7652C13.3753 23.6106 13.1449 23.3876 12.9815 23.1177L12.9047 22.9677L8.94567 15.052L1.06772 11.1118C0.776222 10.9785 0.524838 10.771 0.338708 10.51C0.152578 10.2491 0.038225 9.94382 0.00708666 9.6248L0 9.44882C0 8.7874 0.355512 8.18268 0.993307 7.83071L1.15866 7.74803L22.4386 0.0637794L22.5638 0.0283464L22.6902 0.00708666Z" fill="#166534"/>
</g>
<defs>
<clipPath id="clip0_1473_47">
<rect width="24" height="24" fill="white"/>
</clipPath>
</defs>
</svg>
