<svg width="24" height="24" viewBox="0 0 24 24" fill="none" xmlns="http://www.w3.org/2000/svg">
<path d="M2.15467 21C1.54044 21 1.028 20.791 0.617333 20.373C0.206667 19.955 0.000888889 19.433 0 18.8069V4.19314C0 3.56795 0.205778 3.04636 0.617333 2.62836C1.02889 2.21036 1.54089 2.0009 2.15333 2H21.8467C22.46 2 22.972 2.20945 23.3827 2.62836C23.7933 3.04726 23.9991 3.56886 24 4.19314V18.8082C24 19.4325 23.7942 19.9541 23.3827 20.373C22.9711 20.7919 22.4591 21.0009 21.8467 21H2.15467ZM12 11.4457C12.1111 11.4457 12.2151 11.4285 12.312 11.3941C12.408 11.3598 12.5031 11.3177 12.5973 11.2679L22.236 4.84457C22.3622 4.76676 22.4444 4.66045 22.4827 4.52564C22.5209 4.39083 22.5138 4.25648 22.4613 4.12257C22.4276 3.94795 22.3156 3.82129 22.1253 3.74257C21.936 3.66476 21.7524 3.68059 21.5747 3.79007L12 10.1429L2.42667 3.79143C2.24889 3.68105 2.06933 3.65752 1.888 3.72086C1.70667 3.78419 1.59022 3.90905 1.53867 4.09543C1.48711 4.23476 1.48044 4.37636 1.51867 4.52021C1.55689 4.66407 1.63867 4.77264 1.764 4.84593L11.4027 11.2679C11.4969 11.3177 11.592 11.3598 11.688 11.3941C11.7849 11.4276 11.8889 11.4444 12 11.4444" fill="#166534"/>
</svg>
