<svg width="32" height="32" viewBox="0 0 32 32" fill="none" xmlns="http://www.w3.org/2000/svg">
<path d="M15.5 23.438C11.653 23.438 7.79 22.451 5.965 20.321C5.911 20.558 5.875 20.801 5.875 21.059V24.936C5.875 28.371 10.863 29.934 15.5 29.934C20.137 29.934 25.125 28.371 25.125 24.936V21.059C25.125 20.801 25.089 20.559 25.035 20.322C23.209 22.452 19.347 23.44 15.499 23.44L15.5 23.438ZM15.5 15.943C11.653 15.943 7.79 14.956 5.966 12.826C5.90845 13.0672 5.87825 13.3141 5.876 13.562V17.439C5.876 20.873 10.863 22.436 15.5 22.436C20.137 22.436 25.125 20.873 25.125 17.438V13.56C25.125 13.303 25.089 13.06 25.035 12.823C23.209 14.953 19.347 15.941 15.499 15.941L15.5 15.943ZM15.5 1.066C10.863 1.066 5.875 2.631 5.875 6.066V9.943C5.875 13.378 10.863 14.941 15.5 14.941C20.137 14.941 25.125 13.379 25.125 9.944V6.067C25.125 2.632 20.137 1.067 15.5 1.067V1.066ZM15.5 9.066C11.29 9.066 7.875 7.723 7.875 6.066C7.875 4.41 11.289 3.066 15.5 3.066C19.711 3.066 23.125 4.41 23.125 6.066C23.125 7.724 19.711 9.066 15.5 9.066Z" fill="#166534"/>
</svg>
