<svg width="32" height="32" viewBox="0 0 32 32" fill="none" xmlns="http://www.w3.org/2000/svg">
<path d="M21.136 11.9747H15.0187V0H21.136C24.4373 0 27.1227 2.68533 27.1227 5.98667C27.1227 9.288 24.4373 11.9747 21.136 11.9747ZM16.98 10.0133H21.136C23.356 10.0133 25.1613 8.20667 25.1613 5.988C25.1613 3.76933 23.3547 1.96267 21.136 1.96267H16.98V10.0133ZM16.98 11.9747H10.864C7.56267 11.9747 4.87734 9.28933 4.87734 5.988C4.87734 2.68667 7.56267 0 10.864 0H16.9813V11.9747H16.98ZM10.864 1.96133C8.64401 1.96133 6.83867 3.768 6.83867 5.98667C6.83867 8.20533 8.64401 10.0133 10.864 10.0133H15.02V1.96133H10.864ZM16.98 21.9867H10.864C7.56267 21.9867 4.87734 19.3013 4.87734 16C4.87734 12.6987 7.56267 10.0133 10.864 10.0133H16.9813V21.9867H16.98ZM10.864 11.9747C8.64401 11.9747 6.83867 13.7813 6.83867 16C6.83867 18.2187 8.64534 20.0253 10.864 20.0253H15.02V11.9747H10.864ZM10.896 32C7.57734 32 4.87601 29.3147 4.87601 26.0133C4.87601 22.712 7.56134 20.0267 10.8627 20.0267H16.98V25.948C16.98 29.2853 14.2507 32 10.896 32ZM10.864 21.9867C9.79686 21.9881 8.77382 22.4126 8.01922 23.1672C7.26463 23.9218 6.84009 24.9449 6.83867 26.012C6.83867 28.232 8.65867 30.0373 10.8973 30.0373C13.1707 30.0373 15.0213 28.2027 15.0213 25.9467V21.9867H10.864ZM21.136 21.9867H21.0053C17.704 21.9867 15.0187 19.3013 15.0187 16C15.0187 12.6987 17.704 10.0133 21.0053 10.0133H21.136C24.4373 10.0133 27.1227 12.6987 27.1227 16C27.1227 19.3013 24.4373 21.9867 21.136 21.9867ZM21.0067 11.9747C18.7867 11.9747 16.9813 13.7813 16.9813 16C16.9813 18.2187 18.788 20.0253 21.0067 20.0253H21.1373C23.3573 20.0253 25.1627 18.2187 25.1627 16C25.1627 13.7813 23.3547 11.9747 21.136 11.9747H21.0067Z" fill="#166534"/>
</svg>
