<svg width="32" height="32" viewBox="0 0 32 32" fill="none" xmlns="http://www.w3.org/2000/svg">
<g clip-path="url(#clip0_1473_27)">
<path d="M31.3947 14.5734L17.4227 0.602748C16.6173 -0.201252 15.3133 -0.201252 14.5053 0.602748L11.6107 3.50275L15.2907 7.18275C16.1507 6.89608 17.1293 7.08942 17.8093 7.77075C18.4973 8.45742 18.6867 9.44808 18.3933 10.3041L21.9373 13.8507C22.7973 13.5534 23.7867 13.7467 24.4707 14.4307C25.432 15.3907 25.432 16.9427 24.4707 17.9027C23.512 18.8614 21.9627 18.8614 21.004 17.9027C20.2853 17.1814 20.1053 16.1201 20.4653 15.2414L17.1467 11.9401V20.6401C17.3813 20.7547 17.6027 20.9107 17.7973 21.1041C18.748 22.0654 18.748 23.6147 17.7973 24.5707C16.8387 25.5321 15.2787 25.5321 14.3187 24.5707C13.36 23.6121 13.36 22.0654 14.3187 21.1067C14.5613 20.8667 14.8347 20.6854 15.1253 20.5654V11.7801C14.836 11.6587 14.56 11.4841 14.3253 11.2454C13.5987 10.5187 13.424 9.45608 13.7973 8.56675L10.1813 4.93342L0.6 14.5081C-0.2 15.3147 -0.2 16.6201 0.6 17.4267L14.5733 31.3961C15.3787 32.2014 16.6827 32.2014 17.488 31.3961L31.3947 17.4894C32.2013 16.6854 32.2013 15.3801 31.3947 14.5734Z" fill="#166534"/>
</g>
<defs>
<clipPath id="clip0_1473_27">
<rect width="32" height="32" fill="white"/>
</clipPath>
</defs>
</svg>
