<svg width="24" height="24" viewBox="0 0 24 24" fill="none" xmlns="http://www.w3.org/2000/svg">
<path d="M12 5.37L11.56 5.31L6 14.9C6.24 15.11 6.4 15.38 6.47 15.68H17.53C17.6 15.38 17.76 15.11 18 14.9L12.44 5.31L12 5.37ZM6.6 16.53L10.88 19.06C11.17 18.79 11.57 18.63 12 18.63C12.43 18.63 12.83 18.79 13.12 19.06L17.4 16.53H6.6ZM12 22C11.5544 22 11.1271 21.823 10.8121 21.5079C10.497 21.1929 10.32 20.7656 10.32 20.32L10.41 19.76L6.11 17.21C5.8 17.57 5.35 17.79 4.84 17.79C4.39443 17.79 3.96712 17.613 3.65206 17.2979C3.337 16.9829 3.16 16.5556 3.16 16.11C3.16 15.32 3.69 14.66 4.42 14.47V9.36C3.59 9.25 2.95 8.54 2.95 7.68C2.95 7.23444 3.127 6.80712 3.44206 6.49206C3.75712 6.177 4.18443 6 4.63 6C5.18 6 5.66 6.26 5.97 6.66L10.38 4.13L10.32 3.68C10.32 2.75 11.07 2 12 2C12.93 2 13.68 2.75 13.68 3.68L13.62 4.13L18.03 6.66C18.34 6.26 18.82 6 19.37 6C19.8156 6 20.2429 6.177 20.5579 6.49206C20.873 6.80712 21.05 7.23444 21.05 7.68C21.05 8.54 20.41 9.25 19.58 9.36V14.47C20.31 14.66 20.84 15.32 20.84 16.11C20.84 16.5556 20.663 16.9829 20.3479 17.2979C20.0329 17.613 19.6056 17.79 19.16 17.79C18.65 17.79 18.2 17.57 17.89 17.21L13.59 19.76L13.68 20.32C13.68 20.7656 13.503 21.1929 13.1879 21.5079C12.8729 21.823 12.4456 22 12 22ZM10.8 4.86L6.3 7.44L6.32 7.68C6.32 8.39 5.88 9 5.26 9.25L5.29 14.5L10.8 4.86ZM13.2 4.86L18.71 14.5L18.74 9.25C18.12 9 17.68 8.39 17.68 7.68L17.7 7.44L13.2 4.86Z" fill="#166534"/>
</svg>
