<svg width="24" height="24" viewBox="0 0 24 24" fill="none" xmlns="http://www.w3.org/2000/svg">
<g clip-path="url(#clip0_562_498)">
<path d="M23.2742 11.8165C23.2742 10.3743 22.1814 9.16061 20.7144 8.8143L24 0.0214844H7.71749L11.0106 8.84205C9.58968 9.2163 8.5423 10.4088 8.5423 11.8239C8.5423 12.8637 9.11568 13.7859 9.98662 14.3544C9.64312 14.7982 9.24543 15.2075 8.79487 15.5956C7.9468 16.3171 7.00631 16.8715 5.99043 17.2392C5.07356 16.6775 4.67643 15.6858 5.03531 14.798C6.43349 14.4099 7.45031 13.2241 7.45031 11.8304C7.45031 10.118 5.91431 8.73067 4.03406 8.73067C2.14668 8.73067 0.611618 10.1245 0.611618 11.8375C0.611618 12.6837 0.993181 13.46 1.60481 14.0144C1.55118 14.1119 1.49793 14.2085 1.44431 14.3125C0.932431 15.2699 0.351556 16.3516 0.129556 17.5653C-0.313507 19.9917 0.412306 21.9408 2.16206 23.0431C3.14793 23.6605 4.23337 23.9725 5.40243 23.9725C7.41131 23.9725 9.45187 23.057 11.4229 22.1692C12.8291 21.5386 14.2807 20.8794 15.7097 20.5608C16.2371 20.4429 16.7871 20.3733 17.3679 20.2972C18.5441 20.1447 19.7593 19.9852 20.8521 19.4095C22.128 18.7372 22.9989 17.6135 23.2515 16.3239C23.4418 15.332 23.2515 14.3337 22.7621 13.46C23.0964 12.9772 23.2752 12.4037 23.2742 11.8165ZM21.7845 11.8165C21.7845 12.7803 20.9209 13.564 19.8589 13.564C18.7969 13.564 17.9332 12.7803 17.9332 11.8165C17.9332 11.5044 18.0249 11.2064 18.1852 10.9499C18.2462 10.8524 18.3231 10.7559 18.399 10.6724C18.4795 10.5866 18.5692 10.5099 18.6666 10.4439L18.6746 10.4365C18.7354 10.3949 18.8042 10.3531 18.873 10.312C18.873 10.312 18.8805 10.312 18.8805 10.3047C18.9111 10.2909 18.9418 10.2702 18.9727 10.2564C18.9801 10.2564 18.9874 10.249 18.9952 10.249C19.0262 10.2359 19.0642 10.222 19.1021 10.208C19.1383 10.1953 19.174 10.1814 19.2092 10.1664C19.2167 10.1664 19.2246 10.1589 19.2319 10.1589C19.2626 10.1525 19.2934 10.1384 19.3236 10.1319C19.3316 10.1319 19.347 10.1245 19.3543 10.1245C19.3924 10.118 19.4231 10.1107 19.4612 10.1039H19.4692L19.5836 10.0827C19.5915 10.0827 19.6061 10.0827 19.6142 10.0762C19.6449 10.0762 19.6751 10.0689 19.7059 10.0689H19.7439C19.782 10.0689 19.8208 10.0623 19.8662 10.0623H19.9657C19.9957 10.0623 20.0194 10.0623 20.0494 10.0689H20.0647C20.1262 10.0764 20.187 10.0827 20.2485 10.0968C21.1194 10.2629 21.7845 10.9705 21.7845 11.8165ZM9.84881 1.40805H21.8679L19.1096 8.79311C18.9952 8.8143 18.8803 8.84861 18.7661 8.88311L15.8629 3.50936L12.9514 8.84842C12.8364 8.81411 12.7142 8.79292 12.5925 8.7723L9.84881 1.40805ZM15.312 11.2128C15.1671 10.5609 14.8001 9.97867 14.2807 9.54873L15.8629 6.65055L17.4594 9.61098C16.9856 10.0409 16.6419 10.5888 16.5043 11.2128H15.312ZM11.4844 10.1178C11.5224 10.1103 11.5532 10.1039 11.5912 10.0966H11.6139C11.6447 10.09 11.6756 10.09 11.7056 10.0825H11.7364C11.7671 10.0825 11.7898 10.076 11.8206 10.076H12.1187C12.1487 10.076 12.1721 10.0825 12.1948 10.0825C12.2079 10.0814 12.2212 10.084 12.2329 10.09C12.2636 10.0966 12.2863 10.0966 12.3172 10.1039C12.3244 10.1039 12.3324 10.1039 12.3478 10.1105C12.3861 10.1178 12.4241 10.1244 12.4547 10.1317H12.4622C12.4929 10.1382 12.5237 10.1448 12.5537 10.1589C12.5617 10.1589 12.5691 10.1662 12.5844 10.1662C12.6071 10.1727 12.6379 10.18 12.6606 10.1939C12.6686 10.1939 12.6759 10.2005 12.684 10.2005C12.714 10.2145 12.7449 10.2219 12.7757 10.2357H12.783C12.8211 10.2489 12.8518 10.2627 12.8826 10.2841H12.8901C12.9206 10.298 12.9514 10.3184 12.9821 10.3323C12.9896 10.3323 12.9896 10.3398 12.9967 10.3398C13.0275 10.3529 13.0504 10.3741 13.0811 10.388L13.0892 10.3945C13.1807 10.457 13.2649 10.5265 13.3483 10.5961L13.3564 10.6027C13.4327 10.6788 13.5088 10.7622 13.5703 10.8524C13.7689 11.1299 13.8838 11.456 13.8838 11.8096C13.8838 12.7735 13.0202 13.5565 11.9582 13.5565C10.8962 13.5565 10.0326 12.7735 10.0326 11.8096C10.0247 10.9981 10.6436 10.3119 11.4844 10.1178ZM3.96524 10.0687C5.02743 10.0687 5.89087 10.8524 5.89087 11.8162C5.89087 12.7799 5.02743 13.5637 3.96524 13.5637C2.90306 13.5637 2.03962 12.7801 2.03962 11.8162C2.03962 10.8524 2.90324 10.0687 3.96524 10.0687ZM21.7384 16.0812C21.5706 16.9681 20.9662 17.7453 20.0801 18.2095C19.2472 18.6468 18.2233 18.7852 17.1459 18.9237C16.5579 18.9999 15.939 19.0833 15.3427 19.2151C13.7535 19.5689 12.2256 20.2625 10.7432 20.9275C8.84831 21.7809 7.05974 22.585 5.40243 22.585C4.53881 22.585 3.76687 22.3632 3.03374 21.8988C1.35281 20.8449 1.43624 18.8688 1.63556 17.7869C1.81856 16.774 2.33062 15.8242 2.81981 14.9159C2.84981 14.8602 2.87324 14.8119 2.90324 14.7562C3.07174 14.8119 3.24756 14.8537 3.43068 14.8814C3.14062 16.3514 3.96524 17.8698 5.57006 18.619L5.86068 18.7574L6.17362 18.6534C7.51105 18.2234 8.74874 17.5233 9.84149 16.5871C10.4604 16.0599 10.9879 15.4915 11.4309 14.8741C11.6066 14.902 11.7825 14.9094 11.9582 14.9094C13.5476 14.9094 14.8843 13.9175 15.2666 12.586H16.5499C16.9322 13.9242 18.2694 14.9092 19.8589 14.9092C20.4932 14.9092 21.0814 14.7498 21.5852 14.4794C21.7845 14.9994 21.8452 15.5399 21.7384 16.0812Z" fill="#166534"/>
</g>
<defs>
<clipPath id="clip0_562_498">
<rect width="24" height="24" fill="white"/>
</clipPath>
</defs>
</svg>
