<svg width="32" height="32" viewBox="0 0 32 32" fill="none" xmlns="http://www.w3.org/2000/svg">
<g clip-path="url(#clip0_1473_17)">
<path d="M31.5227 7.24C31.5351 7.28336 31.5413 7.32824 31.5413 7.37333V14.2387C31.5413 14.4187 31.444 14.5853 31.2893 14.6733L25.5253 17.9933V24.572C25.5252 24.66 25.5019 24.7465 25.4579 24.8227C25.414 24.899 25.3508 24.9624 25.2747 25.0067L13.24 31.932C13.2121 31.9473 13.1826 31.9594 13.152 31.968C13.1413 31.9707 13.1307 31.9787 13.12 31.9813C13.0364 32.0053 12.9477 32.0053 12.864 31.9813C12.8493 31.9787 12.8373 31.9707 12.824 31.9653C12.7973 31.9547 12.768 31.9467 12.7413 31.932L0.710679 25.0067C0.634145 24.9628 0.570544 24.8995 0.526297 24.8232C0.482051 24.7469 0.458726 24.6602 0.458679 24.572V3.96533C0.458679 3.92133 0.465346 3.87733 0.477346 3.83467C0.481346 3.81867 0.490679 3.808 0.496013 3.792C0.504033 3.7654 0.514292 3.73953 0.526679 3.71467C0.532013 3.69733 0.546679 3.68533 0.557346 3.67067L0.601346 3.61067C0.617346 3.59733 0.634679 3.58667 0.650679 3.57467C0.669346 3.55867 0.686679 3.54267 0.705346 3.52933L6.72401 0.0666669C6.80002 0.0227827 6.88624 -0.000320435 6.97401 -0.000320435C7.06178 -0.000320435 7.148 0.0227827 7.22401 0.0666669L13.24 3.52933H13.2427C13.2627 3.54267 13.2787 3.55733 13.296 3.57333L13.3467 3.60933C13.364 3.628 13.3733 3.64933 13.3907 3.66933C13.4013 3.684 13.4173 3.69733 13.424 3.71333C13.4373 3.74 13.4467 3.764 13.456 3.79067C13.46 3.80533 13.4693 3.81867 13.4733 3.83333C13.4867 3.87467 13.492 3.91867 13.492 3.964V16.8333L18.5053 13.948V7.36933C18.5053 7.32533 18.5107 7.28133 18.5227 7.23867C18.5267 7.22533 18.536 7.212 18.54 7.196C18.5489 7.16911 18.5596 7.14283 18.572 7.11733C18.5813 7.10133 18.596 7.09067 18.6053 7.07333C18.6213 7.05333 18.6333 7.03333 18.6493 7.016C18.6653 7 18.6827 6.98933 18.6987 6.97867C18.7173 6.96533 18.7333 6.948 18.7533 6.936H18.7547L24.772 3.472C24.848 3.42812 24.9342 3.40501 25.022 3.40501C25.1098 3.40501 25.196 3.42812 25.272 3.472L31.2893 6.936C31.3107 6.94933 31.3253 6.964 31.3453 6.97733C31.3613 6.99067 31.3787 7.00133 31.3933 7.01467C31.4107 7.03333 31.4227 7.05467 31.4387 7.07333C31.4493 7.08933 31.464 7.10133 31.4707 7.11733C31.4853 7.144 31.4947 7.17067 31.5027 7.19733C31.5107 7.21067 31.5187 7.22533 31.5227 7.24ZM30.536 13.9493V8.23867L28.432 9.44933L25.5227 11.124V16.8347L30.536 13.9493ZM24.5227 24.2827V18.5667L21.66 20.2L13.492 24.864V30.6307L24.5227 24.2827ZM1.45735 4.832V24.2827L12.488 30.6307V24.864L6.72535 21.604L6.72268 21.6H6.72001C6.70135 21.5867 6.68668 21.572 6.66668 21.5587C6.65201 21.5453 6.63468 21.5347 6.62001 21.5227L6.61868 21.52C6.60135 21.504 6.59068 21.4867 6.57735 21.4667C6.56401 21.452 6.54935 21.4373 6.54001 21.4187H6.53735C6.52668 21.4 6.52001 21.3773 6.51068 21.356C6.50268 21.3347 6.49201 21.32 6.48668 21.2987C6.48164 21.2736 6.47808 21.2482 6.47601 21.2227C6.47335 21.204 6.46801 21.1867 6.46801 21.168V7.71867L3.56135 6.04267L1.45735 4.832ZM6.97335 1.08L1.96001 3.96533L6.97335 6.85067L11.984 3.96533L6.97335 1.08ZM9.58135 19.0867L12.4907 17.412V4.832L10.384 6.04533L7.47468 7.71867V20.2987L9.58135 19.0867ZM25.0227 4.48667L20.0093 7.37067L25.0227 10.2547L30.0347 7.36933L25.0227 4.48667ZM24.5213 11.124L21.6133 9.44933L19.5067 8.24V13.9507L22.416 15.6253L24.5227 16.836L24.5213 11.124ZM12.988 23.996L20.34 19.7987L24.0147 17.7027L19.0053 14.8187L13.2413 18.1373L7.98668 21.164L12.988 23.996Z" fill="#166534"/>
</g>
<defs>
<clipPath id="clip0_1473_17">
<rect width="32" height="32" fill="white"/>
</clipPath>
</defs>
</svg>
